<svg aria-hidden="true" style="position: absolute; width: 0; height: 0; overflow: hidden;" version="1.1" xmlns="http://www.w3.org/2000/svg" xmlns:xlink="http://www.w3.org/1999/xlink">
<defs>
<symbol id="modalyoutube-icon" viewBox="0 0 46 32">
<path fill="#fff" style="fill: var(--color1, #fff)" d="M30.347 15.534c-4.177-2.232-8.177-4.284-12.265-6.427v12.818c4.302-2.339 8.837-4.481 12.283-6.391h-0.018z"></path>
<path fill="#e8e0e0" style="fill: var(--color2, #e8e0e0)" d="M30.347 15.534c-4.177-2.232-12.265-6.427-12.265-6.427l10.784 7.248c0.001 0-1.964 1.090 1.482-0.821z"></path>
<path fill="#cd201f" style="fill: var(--color3, #cd201f)" d="M18.868 31.958c-8.676-0.16-11.64-0.303-13.461-0.679-1.232-0.249-2.303-0.803-3.088-1.606-0.607-0.608-1.089-1.535-1.464-2.821-0.321-1.072-0.446-1.963-0.625-4.142-0.273-4.916-0.338-8.935 0-13.426 0.279-2.48 0.414-5.424 2.267-7.141 0.875-0.804 1.892-1.321 3.035-1.535 1.785-0.339 9.391-0.607 17.264-0.607 7.856 0 15.478 0.268 17.265 0.607 1.428 0.268 2.766 1.071 3.553 2.106 1.69 2.659 1.72 5.966 1.892 8.552 0.071 1.232 0.071 8.23 0 9.462-0.267 4.088-0.482 5.534-1.089 7.033-0.375 0.947-0.696 1.446-1.25 2-0.842 0.826-1.929 1.405-3.142 1.619l-0.036 0.005c-7.508 0.565-13.884 0.687-21.12 0.571zM30.366 15.534c-4.177-2.232-8.177-4.302-12.265-6.445v12.819c4.302-2.339 8.838-4.481 12.283-6.392l-0.018 0.018z"></path>
</symbol>
</defs>
</svg>
